<svg width="32" height="32" xmlns="http://www.w3.org/2000/svg">
  <path fill="#ffcb03" d="M31.589 15.707c-0.037-3.082-0.952-5.944-2.506-8.354l0.038 0.062c-0.274-0.416-0.565-0.831-0.873-1.247-0.636-0.809-1.318-1.526-2.060-2.175l-0.019-0.016c-2.76-2.417-6.398-3.89-10.381-3.89-4.014 0-7.677 1.497-10.464 3.963l0.017-0.014c-0.735 0.653-1.396 1.356-1.99 2.114l-0.026 0.035c-0.328 0.422-0.657 0.899-0.959 1.395l-0.039 0.068c-0.248 0.391-0.508 0.861-0.743 1.345l-0.039 0.089c-0.208 0.416-0.416 0.869-0.561 1.318-0.474 1.24-0.806 2.677-0.931 4.173l-0.004 0.058q-0.050 0.632-0.050 1.272c0 0.004 0 0.010 0 0.015 0 2.267 0.479 4.422 1.341 6.37l-0.040-0.101c0.154 0.353 0.32 0.702 0.499 1.039v0c0.158 0.308 0.328 0.607 0.507 0.902v0c0.141 0.233 0.291 0.461 0.445 0.686s0.303 0.416 0.461 0.636l0.15 0.195c0.129 0.162 0.262 0.324 0.395 0.482l0.067 0.079c0.538 0.622 1.103 1.184 1.708 1.703l0.021 0.018c0.278 0.237 0.561 0.461 0.856 0.677l0.112 0.083c0.183 0.133 0.37 0.262 0.557 0.387v0c0.212 0.141 0.416 0.274 0.644 0.416l0.262 0.154c0.241 0.137 0.486 0.266 0.736 0.391s0.561 0.27 0.831 0.416c1.839 0.807 3.982 1.277 6.235 1.277s4.396-0.47 6.337-1.316l-0.102 0.040c0.274-0.121 0.549-0.245 0.831-0.382s0.495-0.254 0.732-0.391v0l0.15-0.083c0.258-0.15 0.511-0.308 0.765-0.474l0.565-0.441 0.104-0.075c0.303-0.224 0.594-0.457 0.881-0.702v0c0.623-0.534 1.185-1.094 1.704-1.692l0.017-0.020c0.025-0.025 0.046-0.054 0.067-0.079 0.137-0.162 0.274-0.328 0.416-0.495v0l0.212-0.278c0.133-0.179 0.262-0.357 0.387-0.54s0.299-0.449 0.416-0.677v0c0.179-0.291 0.349-0.59 0.507-0.894v0l0.233-0.453c0.091-0.195 0.183-0.391 0.266-0.586 0.832-1.85 1.316-4.011 1.318-6.284v-0zM23.276 27.885c-0.137 0.087-0.278 0.17-0.416 0.254-0.169-0.034-0.362-0.054-0.561-0.054-0.002 0-0.003 0-0.005 0h0c-0.015-0-0.033-0-0.051-0-0.573 0-1.102 0.189-1.527 0.508l0.007-0.005c-0.141 0.1-0.266 0.204-0.382 0.303l-0.125 0.104c-0.299 0.288-0.706 0.466-1.154 0.466-0.009 0-0.019-0-0.028-0l0.001 0c-0.513-0.002-0.975-0.22-1.3-0.568l-0.001-0.001c-0.498-0.495-1.183-0.802-1.94-0.806h-0.001c-0.011-0-0.023-0-0.035-0-0.668 0-1.278 0.249-1.742 0.659l0.003-0.002-0.179 0.15c-0.1 0.083-0.191 0.162-0.287 0.233-0.263 0.21-0.601 0.337-0.969 0.337-0.018 0-0.035-0-0.052-0.001l0.003 0c-0.001 0-0.001 0-0.002 0-0.517 0-0.983-0.219-1.311-0.568l-0.001-0.001c-0.5-0.498-1.19-0.806-1.951-0.806-0.001 0-0.002 0-0.002 0h0c-0.003 0-0.007-0-0.011-0-0.183 0-0.361 0.017-0.534 0.049l0.018-0.003c-0.15-0.083-0.291-0.17-0.436-0.262s-0.278-0.179-0.416-0.274l-0.154-0.108-0.108-0.054 0.096-0.075 0.15-0.121 0.071-0.062c0.325-0.353 0.789-0.574 1.305-0.574 0.003 0 0.006 0 0.009 0h0.216c0.103 0.013 0.193 0.030 0.281 0.053l-0.015-0.003c0.305 0.104 0.566 0.266 0.782 0.474l-0.001-0.001 0.042 0.033c0.087 0.075 0.183 0.158 0.287 0.237 0.439 0.355 1.005 0.57 1.621 0.57 0.015 0 0.030-0 0.044-0l-0.002 0c0.015 0 0.033 0 0.051 0 0.461 0 0.893-0.122 1.267-0.335l-0.013 0.007c0.246-0.148 0.46-0.305 0.657-0.482l-0.004 0.004c0.109-0.096 0.228-0.19 0.352-0.278l0.014-0.009c0.242-0.171 0.543-0.273 0.868-0.273 0.032 0 0.064 0.001 0.096 0.003l-0.004-0c0.489 0.003 0.931 0.206 1.247 0.532l0 0 0.037 0.033c0.091 0.075 0.187 0.158 0.291 0.237 0.438 0.355 1.002 0.57 1.616 0.57 0.016 0 0.033-0 0.049-0l-0.002 0c0.017 0 0.036 0.001 0.056 0.001 0.57 0 1.097-0.187 1.522-0.504l-0.007 0.005c0.141-0.104 0.266-0.208 0.387-0.308 0.125-0.116 0.26-0.224 0.404-0.321l0.012-0.008c0.231-0.15 0.513-0.238 0.817-0.238 0.024 0 0.048 0.001 0.072 0.002l-0.003-0c0.013-0 0.028-0.001 0.043-0.001 0.257 0 0.499 0.060 0.714 0.167l-0.009-0.004c0.211 0.124 0.393 0.262 0.559 0.417l-0.002-0.002 0.133 0.112 0.216 0.17-0.216 0.15h-0.029zM16.314 30.030c-0.17 0-0.345 0-0.515 0s-0.374 0-0.561 0c-0.374 0-0.748-0.046-1.114-0.087 0.116-0.087 0.22-0.175 0.32-0.258h0.029c0.020-0.021 0.042-0.040 0.065-0.057l0.001-0.001c0.313-0.328 0.753-0.532 1.241-0.532 0.005 0 0.010 0 0.015 0h-0.001c0.016-0.001 0.034-0.001 0.053-0.001 0.348 0 0.67 0.116 0.928 0.311l-0.004-0.003c0.123 0.087 0.23 0.173 0.332 0.265l-0.003-0.003 0.283 0.229 0.071 0.054c-0.391 0.042-0.761 0.071-1.139 0.083zM24.552 26.63c-0.1-0.075-0.2-0.158-0.303-0.245v0l-0.216-0.179c-0.096-0.075-0.195-0.15-0.303-0.22l-0.104-0.062c-0.17-0.101-0.366-0.186-0.573-0.245l-0.018-0.004c-0.219-0.061-0.47-0.096-0.73-0.096-0.005 0-0.010 0-0.015 0h-0.091c-0.233 0.006-0.456 0.041-0.668 0.1l0.019-0.005c-0.121 0.033-0.223 0.070-0.322 0.114l0.014-0.006c-0.259 0.114-0.482 0.254-0.682 0.419l0.005-0.004-0.216 0.179c-0.122 0.101-0.257 0.202-0.398 0.296l-0.018 0.011c-0.259 0.162-0.574 0.257-0.911 0.257-0.283 0-0.55-0.067-0.786-0.187l0.010 0.005c-0.198-0.115-0.37-0.241-0.526-0.384l0.002 0.002-0.216-0.179-0.129-0.1c-0.137-0.106-0.293-0.201-0.458-0.28l-0.016-0.007c-0.112-0.056-0.243-0.106-0.38-0.142l-0.015-0.003-0.087-0.025c-0.179-0.040-0.384-0.063-0.595-0.063-0.011 0-0.023 0-0.034 0l0.002-0c-0.004-0-0.009-0-0.014-0-0.258 0-0.508 0.035-0.746 0.1l0.020-0.005h-0.050c-0.357 0.118-0.665 0.294-0.931 0.519l0.004-0.003c-0.075 0.058-0.141 0.116-0.208 0.175v0l-0.22 0.179c-0.277 0.241-0.642 0.387-1.041 0.387-0.016 0-0.031-0-0.047-0.001l0.002 0c-0.013 0-0.029 0.001-0.045 0.001-0.27 0-0.523-0.068-0.745-0.188l0.008 0.004c-0.214-0.11-0.398-0.23-0.567-0.367l0.006 0.005c-0.066-0.058-0.137-0.121-0.212-0.179-0.237-0.198-0.512-0.36-0.812-0.472l-0.019-0.006-0.15-0.046c-0.219-0.061-0.47-0.096-0.73-0.096-0.005 0-0.010 0-0.015 0h-0.041c-0.249 0.001-0.489 0.036-0.717 0.1l0.019-0.005c-0.159 0.039-0.297 0.090-0.428 0.155l0.012-0.005c-0.15 0.070-0.278 0.146-0.397 0.233l0.007-0.005c-0.075 0.050-0.141 0.104-0.208 0.154s-0.145 0.121-0.212 0.179v0c-0.154 0.135-0.324 0.261-0.503 0.373l-0.016 0.009-0.237-0.204-0.395-0.357-0.046-0.029c-0.27-0.258-0.528-0.524-0.777-0.802 0.193 0.048 0.414 0.075 0.642 0.075 0.004 0 0.008 0 0.011-0h-0.001c0.017 0 0.038 0.001 0.059 0.001 0.585 0 1.124-0.196 1.556-0.525l-0.006 0.005 0.075-0.058 0.042-0.029 0.229-0.191c0.104-0.087 0.204-0.17 0.303-0.245 0.26-0.202 0.591-0.324 0.95-0.324 0.004 0 0.007 0 0.010 0h0.041c0.014-0 0.030-0.001 0.046-0.001 0.315 0 0.608 0.093 0.854 0.254l-0.006-0.004c0.147 0.101 0.274 0.201 0.395 0.307l-0.005-0.004 0.278 0.229c0.223 0.17 0.48 0.311 0.758 0.41l0.020 0.006c0.261 0.092 0.562 0.146 0.876 0.146 0.008 0 0.016-0 0.023-0h0.061c0.541-0.001 1.042-0.171 1.455-0.459l-0.008 0.005c0.166-0.116 0.312-0.237 0.449-0.349 0.151-0.138 0.318-0.263 0.497-0.37l0.014-0.008c0.216-0.121 0.473-0.192 0.747-0.192 0.015 0 0.030 0 0.045 0.001l-0.002-0c0.012-0 0.026-0.001 0.040-0.001 0.223 0 0.434 0.046 0.627 0.129l-0.010-0.004c0.109 0.048 0.202 0.099 0.289 0.158l-0.007-0.004c0.137 0.096 0.256 0.191 0.369 0.294l-0.003-0.003c0.087 0.075 0.183 0.15 0.283 0.229h0.025c0.301 0.238 0.664 0.412 1.060 0.496l0.017 0.003 0.254 0.042h0.316c0.069 0.006 0.15 0.010 0.231 0.010 0.195 0 0.385-0.020 0.568-0.059l-0.018 0.003c0.395-0.121 0.736-0.312 1.026-0.56l-0.004 0.003 0.175-0.145 0.037-0.033 0.216-0.175c0.257-0.216 0.59-0.35 0.954-0.357l0.002-0h0.091c0.001 0 0.002 0 0.002 0 0.514 0 0.977 0.219 1.302 0.568l0.001 0.001 0.133 0.108c0.482 0.426 1.119 0.686 1.817 0.686 0.255 0 0.503-0.035 0.737-0.1l-0.019 0.005c-0.254 0.287-0.52 0.557-0.798 0.831l-0.025 0.025c-0.129 0.125-0.266 0.245-0.416 0.366l-0.249 0.208c-0.086-0.051-0.159-0.102-0.229-0.157l0.004 0.003zM27.848 23.242c-0.302 0.114-0.564 0.266-0.795 0.453l0.005-0.004-0.204 0.166-0.204 0.17c-0.295 0.248-0.678 0.399-1.098 0.399-0.43 0-0.824-0.159-1.124-0.422l0.002 0.002c-0.062-0.046-0.121-0.096-0.183-0.15l-0.121-0.1c-0.121-0.099-0.257-0.198-0.398-0.288l-0.018-0.011c-0.394-0.261-0.879-0.416-1.399-0.416-0.014 0-0.028 0-0.041 0l0.002-0h-0.091c-0.346 0.006-0.674 0.079-0.973 0.206l0.017-0.006c-0.23 0.101-0.428 0.221-0.609 0.362l0.006-0.005c-0.108 0.083-0.208 0.166-0.303 0.245l-0.125 0.108c-0.122 0.106-0.258 0.201-0.404 0.281l-0.012 0.006c-0.207 0.11-0.454 0.175-0.715 0.175-0.016 0-0.032-0-0.048-0.001l0.002 0c-0.029 0.002-0.063 0.003-0.098 0.003s-0.068-0.001-0.102-0.003l0.005 0c-0.438-0.056-0.821-0.258-1.105-0.556l-0.001-0.001c-0.108-0.087-0.22-0.183-0.345-0.274-0.27-0.208-0.59-0.366-0.938-0.453l-0.018-0.004c-0.173-0.037-0.372-0.059-0.575-0.059-0.017 0-0.034 0-0.050 0l0.003-0c-0.009-0-0.020-0-0.030-0-0.271 0-0.532 0.041-0.778 0.117l0.019-0.005c-0.377 0.111-0.704 0.286-0.986 0.515l0.005-0.004-0.029 0.025-0.175 0.145c-0.087 0.071-0.166 0.141-0.249 0.204-0.268 0.223-0.614 0.359-0.993 0.362h-0.063c-0.016 0.001-0.035 0.001-0.054 0.001-0.305 0-0.59-0.089-0.829-0.242l0.006 0.004c-0.157-0.105-0.292-0.209-0.421-0.321l0.006 0.005c-0.292-0.274-0.637-0.496-1.017-0.649l-0.022-0.008c-0.262-0.095-0.565-0.15-0.881-0.15-0.012 0-0.024 0-0.035 0l0.002-0h-0.042c-0.005-0-0.011-0-0.018-0-0.553 0-1.065 0.178-1.482 0.479l0.007-0.005c-0.119 0.081-0.222 0.16-0.32 0.245l0.004-0.004-0.104 0.087-0.071 0.058c-0.31 0.316-0.741 0.512-1.217 0.512-0.010 0-0.021-0-0.031-0l0.002 0c-0.001 0-0.003 0-0.005 0-0.487 0-0.928-0.202-1.241-0.527l-0-0-0.050-0.042-0.079-0.067c-0.238-0.217-0.512-0.399-0.812-0.536l-0.020-0.008c-0.221-0.355-0.456-0.787-0.669-1.232l-0.037-0.086c0.259 0.016 0.5 0.058 0.731 0.122l-0.025-0.006c0.648 0.194 1.205 0.52 1.665 0.95l-0.002-0.002c0.337 0.283 0.366 0.295 0.565 0.295s0.229 0 0.565-0.295c0.333-0.303 0.715-0.56 1.132-0.757l0.028-0.012v-11.264c0-0.001 0-0.003 0-0.005 0-0.319-0.259-0.578-0.578-0.578-0.007 0-0.015 0-0.022 0l0.001-0h-1.796v-1.434h1.924c0.889 0.006 1.636 0.605 1.867 1.42l0.003 0.014c0.039 0.144 0.063 0.309 0.066 0.48l0 0.002v11.048h0.042c0.008-0 0.017-0 0.027-0 0.315 0 0.621 0.038 0.914 0.109l-0.026-0.005v-11.185c0.001-0.009 0.002-0.019 0.002-0.029s-0.001-0.020-0.002-0.030l0 0.001c-0.032-0.706-0.31-1.341-0.75-1.827l0.002 0.002h0.258c0.889 0.007 1.637 0.605 1.871 1.42l0.003 0.014c0.048 0.145 0.080 0.313 0.087 0.487l0 0.004v11.846c0.129 0.096 0.237 0.187 0.337 0.27 0.332 0.283 0.362 0.295 0.561 0.295h0.062v-12.469s0-0.042 0-0.058c-0.007-0.141-0.024-0.272-0.049-0.4l0.003 0.018c-0.103-0.562-0.355-1.052-0.713-1.445l0.002 0.002h0.258c0.885 0.020 1.623 0.622 1.85 1.437l0.003 0.014c0.043 0.144 0.068 0.31 0.071 0.481v11.46c0.277-0.148 0.599-0.264 0.937-0.333l0.023-0.004v-11.156s0-0.042 0-0.062c-0.010-0.144-0.026-0.273-0.049-0.401l0.003 0.023c-0.109-0.562-0.363-1.051-0.721-1.445l0.002 0.002h0.258c0.89 0.009 1.638 0.606 1.875 1.42l0.003 0.014c0.044 0.144 0.071 0.309 0.075 0.48l0 0.002v11.098c0.358 0.059 0.679 0.162 0.978 0.304l-0.022-0.009v-11.426c0.001-0.010 0.002-0.022 0.002-0.033s-0.001-0.023-0.002-0.035l0 0.001c-0.007-0.138-0.024-0.266-0.049-0.391l0.003 0.017c-0.108-0.561-0.36-1.051-0.717-1.445l0.002 0.002h0.258c0.888 0.014 1.634 0.608 1.875 1.42l0.004 0.014c0.042 0.143 0.069 0.308 0.075 0.479l0 0.004v12.403c0.046 0.017 0.1 0.027 0.155 0.027 0.014 0 0.028-0.001 0.042-0.002l-0.002 0c0.204 0 0.229 0 0.565-0.295 0.062-0.054 0.125-0.108 0.195-0.162v-12.004c0.001-0.011 0.002-0.023 0.002-0.035s-0.001-0.025-0.002-0.037l0 0.002c-0.011-0.144-0.029-0.273-0.053-0.4l0.004 0.022c-0.106-0.561-0.357-1.051-0.713-1.445l0.002 0.003h0.233c0.9 0.002 1.658 0.605 1.896 1.428l0.003 0.014c0.043 0.143 0.071 0.307 0.079 0.478l0 0.004v11.185c0.285-0.082 0.614-0.131 0.953-0.137l0.003-0v-11.081c0.001-0.012 0.002-0.026 0.002-0.040s-0.001-0.028-0.002-0.041l0 0.002c-0.010-0.137-0.026-0.261-0.049-0.382l0.003 0.021c-0.151-0.776-0.587-1.431-1.192-1.864l-0.009-0.006c-0.463-0.329-1.040-0.526-1.662-0.528h-13.941v-1.841h20.836v4.231h-1.883c-0.317 0-0.574 0.257-0.574 0.574v0 11.222c0.479 0.213 0.891 0.485 1.25 0.814l-0.003-0.003c0.337 0.283 0.362 0.295 0.565 0.295s0.224 0 0.561-0.295c0.479-0.444 1.066-0.779 1.716-0.961l0.029-0.007c0.206-0.053 0.447-0.092 0.695-0.108l0.011-0.001q-0.32 0.673-0.698 1.309z"></path>
</svg>